<svg width="1000" height="1000" xmlns="http://www.w3.org/2000/svg">
 <style type="text/css">.st0{fill:#FFFFFF;}
	.st1{fill:#E4E8EC;}
	.st2{fill:#606060;}
	.st3{fill:#4BE080;}
	.st4{fill:#4ACC8A;}
	.st5{fill:none;stroke:#441A36;stroke-width:6;stroke-linecap:round;stroke-linejoin:round;stroke-miterlimit:10;}
	.st6{fill:#9DEDB8;}
	.st7{fill:#441A36;}
	.st8{fill:#FFC417;}
	.st9{fill:#FF4F7C;}
	.st10{fill:#F2F2F2;}</style>

 <!--  -->
 <g>
  <title>background</title>
  <rect fill="none" id="canvas_background" height="602" width="802" y="-1" x="-1"/>
 </g>
 <g>
  <title>Layer 1</title>
  <g id="svg_3">
   <g id="svg_4">
    <g id="svg_5">
     <g id="svg_6">
      <path id="svg_7" d="m468.8,793.7c0,17.2 14,31.2 31.2,31.2s31.2,-14 31.2,-31.2c0,-13 -8,-24.2 -19.3,-28.8l0,-50.9l-23.7,0l0,50.9c-11.4,4.6 -19.4,15.8 -19.4,28.8z" class="st3"/>
      <rect id="svg_8" height="21.2" width="23.7" class="st4" y="714" x="488.1"/>
      <path id="svg_9" d="m468.8,793.7c0,17.2 14,31.2 31.2,31.2s31.2,-14 31.2,-31.2c0,-13 -8,-24.2 -19.3,-28.8l0,-50.9l-23.7,0l0,50.9c-11.4,4.6 -19.4,15.8 -19.4,28.8z" class="st5"/>
      <ellipse id="svg_10" ry="6.2" rx="11.2" cy="808.4" cx="497.7" class="st6"/>
     </g>
     <g id="svg_11">
      <path id="svg_12" d="m531.2,206.3c0,-17.2 -14,-31.2 -31.2,-31.2s-31.2,14 -31.2,31.2c0,13 8,24.2 19.3,28.8l0,50.9l23.7,0l0,-50.9c11.4,-4.6 19.4,-15.8 19.4,-28.8z" class="st3"/>
      <rect id="svg_13" height="21.2" width="23.7" class="st4" y="264.8" x="488.1"/>
      <path id="svg_14" d="m531.2,206.3c0,-17.2 -14,-31.2 -31.2,-31.2s-31.2,14 -31.2,31.2c0,13 8,24.2 19.3,28.8l0,50.9l23.7,0l0,-50.9c11.4,-4.6 19.4,-15.8 19.4,-28.8z" class="st5"/>
      <ellipse id="svg_15" ry="6.2" rx="11.2" cy="191.6" cx="502.3" class="st6"/>
     </g>
    </g>
    <g id="svg_16">
     <g id="svg_17">
      <path id="svg_18" d="m619.9,769.9c8.6,14.9 27.7,20 42.6,11.4s20,-27.7 11.4,-42.6c-6.5,-11.3 -19,-16.9 -31.1,-15.3l-25.4,-44.1l-20.6,11.9l25.4,44.1c-7.5,9.7 -8.9,23.4 -2.3,34.6z" class="st3"/>
      <rect id="svg_19" height="21.2" width="23.7" class="st4" transform="matrix(0.866,-0.5,0.5,0.866,-265.2316,399.2062) " y="683.9" x="600.4"/>
      <path id="svg_20" d="m619.9,769.9c8.6,14.9 27.7,20 42.6,11.4s20,-27.7 11.4,-42.6c-6.5,-11.3 -19,-16.9 -31.1,-15.3l-25.4,-44.1l-20.6,11.9l25.4,44.1c-7.5,9.7 -8.9,23.4 -2.3,34.6z" class="st5"/>
      <ellipse id="svg_21" ry="6.2" rx="11.2" cy="768.2" cx="652.2" class="st6" transform="matrix(0.866,-0.5,0.5,0.866,-296.7239,429.0346) "/>
     </g>
     <g id="svg_22">
      <path id="svg_23" d="m380.1,230.1c-8.6,-14.9 -27.7,-20 -42.6,-11.4s-20,27.7 -11.4,42.6c6.5,11.3 19,16.9 31.1,15.3l25.4,44.1l20.6,-11.9l-25.4,-44.1c7.5,-9.7 8.9,-23.4 2.3,-34.6z" class="st3"/>
      <rect id="svg_24" height="21.2" width="23.7" class="st4" transform="matrix(0.866,-0.5,0.5,0.866,-100.7938,234.7684) " y="294.8" x="375.8"/>
      <path id="svg_25" d="m380.1,230.1c-8.6,-14.9 -27.7,-20 -42.6,-11.4s-20,27.7 -11.4,42.6c6.5,11.3 19,16.9 31.1,15.3l25.4,44.1l20.6,-11.9l-25.4,-44.1c7.5,-9.7 8.9,-23.4 2.3,-34.6z" class="st5"/>
      <ellipse id="svg_26" ry="6.2" rx="11.2" cy="231.8" cx="347.8" class="st6" transform="matrix(0.866,-0.5,0.5,0.866,-69.3015,204.9399) "/>
     </g>
    </g>
    <g id="svg_27">
     <g id="svg_28">
      <path id="svg_29" d="m738.8,673.9c14.9,8.6 34,3.5 42.6,-11.4s3.5,-34 -11.4,-42.6c-11.3,-6.5 -24.9,-5.2 -34.6,2.3l-44.1,-25.4l-11.9,20.6l44.1,25.4c-1.7,12.1 4,24.5 15.3,31.1z" class="st3"/>
      <rect id="svg_30" height="21.2" width="23.7" class="st4" transform="matrix(0.5,-0.866,0.866,0.5,-183.0127,907.639) " y="601.7" x="682.7"/>
      <path id="svg_31" d="m738.8,673.9c14.9,8.6 34,3.5 42.6,-11.4s3.5,-34 -11.4,-42.6c-11.3,-6.5 -24.9,-5.2 -34.6,2.3l-44.1,-25.4l-11.9,20.6l44.1,25.4c-1.7,12.1 4,24.5 15.3,31.1z" class="st5"/>
      <ellipse id="svg_32" ry="6.2" rx="11.2" cy="656.2" cx="765.9" class="st6" transform="matrix(0.5,-0.866,0.866,0.5,-185.2855,991.4045) "/>
     </g>
     <g id="svg_33">
      <path id="svg_34" d="m261.2,326.1c-14.9,-8.6 -34,-3.5 -42.6,11.4s-3.5,34 11.4,42.6c11.3,6.5 24.9,5.2 34.6,-2.3l44.1,25.4l11.9,-20.6l-44.1,-25.4c1.7,-12.1 -4,-24.5 -15.3,-31.1z" class="st3"/>
      <rect id="svg_35" height="21.2" width="23.7" class="st4" transform="matrix(0.5,-0.866,0.866,0.5,-183.0127,458.3864) " y="377.1" x="293.6"/>
      <path id="svg_36" d="m261.2,326.1c-14.9,-8.6 -34,-3.5 -42.6,11.4s-3.5,34 11.4,42.6c11.3,6.5 24.9,5.2 34.6,-2.3l44.1,25.4l11.9,-20.6l-44.1,-25.4c1.7,-12.1 -4,-24.5 -15.3,-31.1z" class="st5"/>
      <ellipse id="svg_37" ry="6.2" rx="11.2" cy="343.8" cx="234.1" class="st6" transform="matrix(0.5,-0.866,0.866,0.5,-180.7399,374.6208) "/>
     </g>
    </g>
    <g id="svg_38">
     <g id="svg_39">
      <path id="svg_40" d="m793.7,531.2c17.2,0 31.2,-14 31.2,-31.2s-14,-31.2 -31.2,-31.2c-13,0 -24.2,8 -28.8,19.3l-50.9,0l0,23.7l50.9,0c4.6,11.4 15.8,19.4 28.8,19.4z" class="st3"/>
      <rect id="svg_41" height="23.7" width="21.2" class="st4" y="488.1" x="714"/>
      <path id="svg_42" d="m793.7,531.2c17.2,0 31.2,-14 31.2,-31.2s-14,-31.2 -31.2,-31.2c-13,0 -24.2,8 -28.8,19.3l-50.9,0l0,23.7l50.9,0c4.6,11.4 15.8,19.4 28.8,19.4z" class="st5"/>
      <ellipse id="svg_43" ry="11.2" rx="6.2" cy="502.3" cx="808.4" class="st6"/>
     </g>
     <g id="svg_44">
      <path id="svg_45" d="m206.3,468.8c-17.2,0 -31.2,14 -31.2,31.2s14,31.2 31.2,31.2c13,0 24.2,-8 28.8,-19.3l50.9,0l0,-23.7l-50.9,0c-4.6,-11.4 -15.8,-19.4 -28.8,-19.4z" class="st3"/>
      <rect id="svg_46" height="23.7" width="21.2" class="st4" y="488.1" x="264.8"/>
      <path id="svg_47" d="m206.3,468.8c-17.2,0 -31.2,14 -31.2,31.2s14,31.2 31.2,31.2c13,0 24.2,-8 28.8,-19.3l50.9,0l0,-23.7l-50.9,0c-4.6,-11.4 -15.8,-19.4 -28.8,-19.4z" class="st5"/>
      <ellipse id="svg_48" ry="11.2" rx="6.2" cy="497.7" cx="191.6" class="st6"/>
     </g>
    </g>
    <g id="svg_49">
     <g id="svg_50">
      <path id="svg_51" d="m769.9,380.1c14.9,-8.6 20,-27.7 11.4,-42.6s-27.7,-20 -42.6,-11.4c-11.3,6.5 -16.9,19 -15.3,31.1l-44.1,25.4l11.9,20.6l44.1,-25.4c9.7,7.5 23.4,8.9 34.6,2.3z" class="st3"/>
      <rect id="svg_52" height="23.7" width="21.2" class="st4" transform="matrix(0.866,-0.5,0.5,0.866,-100.7938,399.2062) " y="375.8" x="683.9"/>
      <path id="svg_53" d="m769.9,380.1c14.9,-8.6 20,-27.7 11.4,-42.6s-27.7,-20 -42.6,-11.4c-11.3,6.5 -16.9,19 -15.3,31.1l-44.1,25.4l11.9,20.6l44.1,-25.4c9.7,7.5 23.4,8.9 34.6,2.3z" class="st5"/>
      <ellipse id="svg_54" ry="11.2" rx="6.2" cy="347.8" cx="768.2" class="st6" transform="matrix(0.866,-0.5,0.5,0.866,-70.9654,430.6985) "/>
     </g>
     <g id="svg_55">
      <path id="svg_56" d="m230.1,619.9c-14.9,8.6 -20,27.7 -11.4,42.6s27.7,20 42.6,11.4c11.3,-6.5 16.9,-19 15.3,-31.1l44.1,-25.4l-11.9,-20.6l-44.1,25.4c-9.7,-7.5 -23.4,-8.9 -34.6,-2.3z" class="st3"/>
      <rect id="svg_57" height="23.7" width="21.2" class="st4" transform="matrix(0.866,-0.5,0.5,0.866,-265.2316,234.7684) " y="600.4" x="294.8"/>
      <path id="svg_58" d="m230.1,619.9c-14.9,8.6 -20,27.7 -11.4,42.6s27.7,20 42.6,11.4c11.3,-6.5 16.9,-19 15.3,-31.1l44.1,-25.4l-11.9,-20.6l-44.1,25.4c-9.7,-7.5 -23.4,-8.9 -34.6,-2.3z" class="st5"/>
      <ellipse id="svg_59" ry="11.2" rx="6.2" cy="652.2" cx="231.8" class="st6" transform="matrix(0.866,-0.5,0.5,0.866,-295.0601,203.2761) "/>
     </g>
    </g>
    <g id="svg_60">
     <g id="svg_61">
      <path id="svg_62" d="m673.9,261.2c8.6,-14.9 3.5,-34 -11.4,-42.6s-34,-3.5 -42.6,11.4c-6.5,11.3 -5.2,24.9 2.3,34.6l-25.4,44.1l20.6,11.9l25.4,-44.1c12.1,1.7 24.5,-4 31.1,-15.3z" class="st3"/>
      <rect id="svg_63" height="23.7" width="21.2" class="st4" transform="matrix(0.5,-0.866,0.866,0.5,41.6136,683.0127) " y="293.6" x="601.7"/>
      <path id="svg_64" d="m673.9,261.2c8.6,-14.9 3.5,-34 -11.4,-42.6s-34,-3.5 -42.6,11.4c-6.5,11.3 -5.2,24.9 2.3,34.6l-25.4,44.1l20.6,11.9l25.4,-44.1c12.1,1.7 24.5,-4 31.1,-15.3z" class="st5"/>
      <ellipse id="svg_65" ry="11.2" rx="6.2" cy="234.1" cx="656.2" class="st6" transform="matrix(0.5,-0.866,0.866,0.5,125.3792,685.2855) "/>
     </g>
     <g id="svg_66">
      <path id="svg_67" d="m326.1,738.8c-8.6,14.9 -3.5,34 11.4,42.6s34,3.5 42.6,-11.4c6.5,-11.3 5.2,-24.9 -2.3,-34.6l25.4,-44.1l-20.6,-11.9l-25.4,44.1c-12.1,-1.7 -24.5,4 -31.1,15.3z" class="st3"/>
      <rect id="svg_68" height="23.7" width="21.2" class="st4" transform="matrix(0.5,-0.866,0.866,0.5,-407.639,683.0127) " y="682.7" x="377.1"/>
      <path id="svg_69" d="m326.1,738.8c-8.6,14.9 -3.5,34 11.4,42.6s34,3.5 42.6,-11.4c6.5,-11.3 5.2,-24.9 -2.3,-34.6l25.4,-44.1l-20.6,-11.9l-25.4,44.1c-12.1,-1.7 -24.5,4 -31.1,15.3z" class="st5"/>
      <ellipse id="svg_70" ry="11.2" rx="6.2" cy="765.9" cx="343.8" class="st6" transform="matrix(0.5,-0.866,0.866,0.5,-491.4046,680.7399) "/>
     </g>
    </g>
   </g>
   <g id="svg_71">
    <circle id="svg_72" r="221.4" cy="500" cx="500" class="st3"/>
    <path id="svg_73" d="m646,333.6c34.5,39 55.4,90.3 55.4,146.5c0,122.3 -99.1,221.4 -221.4,221.4c-55.9,0 -107,-20.8 -146,-55c40.6,45.9 99.9,74.8 165.9,74.8c122.3,0 221.4,-99.1 221.4,-221.4c0.1,-66.2 -29.1,-125.7 -75.3,-166.3z" class="st4"/>
    <circle id="svg_74" r="221.4" cy="500" cx="500" class="st5"/>
    <g id="svg_75">
     <path id="svg_76" d="m352.7,492.9c-21.9,18.9 -29.5,80.1 36.1,131c71,55.1 195.7,47.5 244.4,-17.7c24.6,-33 26.9,-86 10.1,-97.9c-33.7,-24 -70.2,13.2 -78.6,15.8c-20.4,6.3 -48.5,7 -88.9,-9.5c-49.1,-20 -92,-48.5 -123.1,-21.7z" class="st7"/>
     <path id="svg_77" d="m475.8,514.7c-12.8,-5.2 -25.1,-11 -36.9,-16.2c-1.5,3.8 -2,9.3 -1.5,17.4c0.9,13.2 11.1,27.2 27.8,27.2c13,0 20.9,-11.9 24.3,-23.2c-4.3,-1.6 -8.9,-3.3 -13.7,-5.2z" class="st8"/>
     <path id="svg_78" d="m411.5,521.1c14.8,0 26.2,-10.6 29.4,-21.8c-20.8,-9.2 -40,-17 -57.1,-17.3c-0.4,3.2 -0.5,7.1 -0.2,11.9c0.9,13.2 11.1,27.2 27.9,27.2z" class="st8"/>
     <path id="svg_79" d="m592.1,549.2c14.4,-5.1 13.4,-30.1 13.4,-44.9c0,-0.7 0,-1.4 0,-2c-16.6,4.6 -30.7,16.1 -37.7,20.4c0.9,14.4 11,31.2 24.3,26.5z" class="st8"/>
     <path id="svg_80" d="m636.1,504.1c-10.4,-4.8 -20.9,-4.5 -30.5,-1.9c0,0.6 -0.1,1.3 -0.1,2.1c-0.7,22.5 4.1,32.1 11.3,32.1c9.3,-0.1 19.3,-19.6 19.3,-32.3z" class="st8"/>
     <path id="svg_81" d="m475.8,514.7c-12.8,-5.2 -25.1,-11 -36.9,-16.2c-1.5,3.8 -2,9.3 -1.5,17.4c0.9,13.2 11.1,27.2 27.8,27.2c13,0 20.9,-11.9 24.3,-23.2c-4.3,-1.6 -8.9,-3.3 -13.7,-5.2z" class="st5"/>
     <path id="svg_82" d="m411.5,521.1c14.8,0 26.2,-10.6 29.4,-21.8c-20.8,-9.2 -40,-17 -57.1,-17.3c-0.4,3.2 -0.5,7.1 -0.2,11.9c0.9,13.2 11.1,27.2 27.9,27.2z" class="st5"/>
     <path id="svg_83" d="m592.1,549.2c14.4,-5.1 13.4,-30.1 13.4,-44.9c0,-0.7 0,-1.4 0,-2c-16.6,4.6 -30.7,16.1 -37.7,20.4c0.9,14.4 11,31.2 24.3,26.5z" class="st5"/>
     <path id="svg_84" d="m636.1,504.1c-10.4,-4.8 -20.9,-4.5 -30.5,-1.9c0,0.6 -0.1,1.3 -0.1,2.1c-0.7,22.5 4.1,32.1 11.3,32.1c9.3,-0.1 19.3,-19.6 19.3,-32.3z" class="st5"/>
     <path id="svg_85" d="m352.7,492.9c-21.9,18.9 -29.5,80.1 36.1,131c71,55.1 195.7,47.5 244.4,-17.7c24.6,-33 26.9,-86 10.1,-97.9c-33.7,-24 -70.2,13.2 -78.6,15.8c-20.4,6.3 -48.5,7 -88.9,-9.5c-49.1,-20 -92,-48.5 -123.1,-21.7z" class="st5"/>
     <path id="svg_86" d="m493.5,580.2c-6.5,0 -12.8,1 -18.7,3c-11.9,-16.5 -30.4,-27.1 -51.2,-27.1c-27.1,0 -50.4,18.1 -60.2,43.8c6.8,8.1 15.2,16.2 25.3,24.1c11.9,9.3 25.4,16.8 39.8,22.5c0,0 0,0 0,0c0.9,0.3 1.8,0.7 2.6,1c0.4,0.2 0.8,0.3 1.2,0.5c1.6,0.6 3.3,1.2 4.9,1.7c0.5,0.2 1.1,0.4 1.7,0.6c1.5,0.5 3.1,1 4.6,1.5c0.3,0.1 0.5,0.2 0.8,0.2c1.7,0.5 3.4,1 5.1,1.4c0.5,0.1 1,0.3 1.5,0.4c1.8,0.5 3.6,0.9 5.4,1.3c0.1,0 0.3,0.1 0.4,0.1c1.7,0.4 3.5,0.8 5.2,1.1c0.4,0.1 0.9,0.2 1.3,0.3c1.8,0.4 3.7,0.7 5.6,1c0.2,0 0.3,0.1 0.5,0.1c1.7,0.3 3.5,0.6 5.3,0.8c0.4,0.1 0.8,0.1 1.2,0.2c1.9,0.3 3.8,0.5 5.7,0.7c0.1,0 0.1,0 0.2,0c0,0 0,0 0,0c26.1,2.8 52.8,0.9 77,-5.8c0,-0.8 0.1,-1.7 0.1,-2.5c-0.2,-39.2 -29.3,-70.9 -65.3,-70.9z" class="st9"/>
     <path id="svg_87" d="m493.5,580.2c-6.5,0 -12.8,1 -18.7,3c-11.9,-16.5 -30.4,-27.1 -51.2,-27.1c-27.1,0 -50.4,18.1 -60.2,43.8c6.8,8.1 15.2,16.2 25.3,24.1c11.9,9.3 25.4,16.8 39.8,22.5c0,0 0,0 0,0c0.9,0.3 1.8,0.7 2.6,1c0.4,0.2 0.8,0.3 1.2,0.5c1.6,0.6 3.3,1.2 4.9,1.7c0.5,0.2 1.1,0.4 1.7,0.6c1.5,0.5 3.1,1 4.6,1.5c0.3,0.1 0.5,0.2 0.8,0.2c1.7,0.5 3.4,1 5.1,1.4c0.5,0.1 1,0.3 1.5,0.4c1.8,0.5 3.6,0.9 5.4,1.3c0.1,0 0.3,0.1 0.4,0.1c1.7,0.4 3.5,0.8 5.2,1.1c0.4,0.1 0.9,0.2 1.3,0.3c1.8,0.4 3.7,0.7 5.6,1c0.2,0 0.3,0.1 0.5,0.1c1.7,0.3 3.5,0.6 5.3,0.8c0.4,0.1 0.8,0.1 1.2,0.2c1.9,0.3 3.8,0.5 5.7,0.7c0.1,0 0.1,0 0.2,0c0,0 0,0 0,0c26.1,2.8 52.8,0.9 77,-5.8c0,-0.8 0.1,-1.7 0.1,-2.5c-0.2,-39.2 -29.3,-70.9 -65.3,-70.9z" class="st5"/>
    </g>
    <path id="svg_88" d="m430.7,379.5c-7.1,10.3 -11.2,22.8 -11.2,36.3c0,35.6 28.8,64.4 64.4,64.4c24.4,0 45.7,-13.6 56.6,-33.6l-109.8,-67.1z" class="st10"/>
    <path id="svg_89" d="m430.7,379.5c-7.1,10.3 -11.2,22.8 -11.2,36.3c0,35.6 28.8,64.4 64.4,64.4c24.4,0 45.7,-13.6 56.6,-33.6l-109.8,-67.1z" class="st5"/>
    <path id="svg_90" d="m459.6,397.1c-3.5,5.1 -5.5,11.3 -5.5,17.9c0,17.6 14.2,31.8 31.8,31.8c12.1,0 22.6,-6.7 27.9,-16.6l-54.2,-33.1z" class="st5"/>
    <path id="svg_91" d="m592.3,412.2c-1.8,-2.7 -3.8,-5.2 -6,-7.5l-45.3,42.1c13.8,20.4 36.4,29.1 50.5,19.6s14.5,-33.8 0.8,-54.2z" class="st0"/>
    <path id="svg_92" d="m592.3,412.2c-1.8,-2.7 -3.8,-5.2 -6,-7.5l-45.3,42.1c13.8,20.4 36.4,29.1 50.5,19.6s14.5,-33.8 0.8,-54.2z" class="st5"/>
    <path id="svg_93" d="m459.6,397.1c-3.5,5.1 -5.5,11.3 -5.5,17.9c0,17.6 14.2,31.8 31.8,31.8c12.1,0 22.6,-6.7 27.9,-16.6l-54.2,-33.1z" class="st7"/>
    <path id="svg_94" d="m553.3,460.3c10.1,-0.6 18.1,-8.9 18.1,-19.2c0,-6.3 -3,-11.9 -7.7,-15.4l-22.7,21.1c3.6,5.4 7.8,9.9 12.3,13.5z" class="st7"/>
    <path id="svg_95" d="m553.3,460.3c10.1,-0.6 18.1,-8.9 18.1,-19.2c0,-6.3 -3,-11.9 -7.7,-15.4l-22.7,21.1c3.6,5.4 7.8,9.9 12.3,13.5z" class="st5"/>
    <circle id="svg_96" r="17.3" cy="330.4" cx="491.3" class="st6"/>
    <circle id="svg_97" r="17.3" cy="337" cx="596.7" class="st6"/>
    <circle id="svg_98" r="11.1" cy="348.6" cx="419.6" class="st6"/>
    <circle id="svg_99" r="11.1" cy="421.9" cx="358.9" class="st6"/>
    <circle id="svg_100" r="5.6" cy="437.4" cx="656.2" class="st6"/>
    <circle id="svg_101" r="5.6" cy="372.4" cx="553.1" class="st6"/>
   </g>
  </g>
 </g>
</svg>